<svg width="32" height="32" viewBox="0 0 32 32" fill="none" xmlns="http://www.w3.org/2000/svg">
<g id="36 Multicolor / Flag / mc_36_flag_uzbekistan">
<g id="mc_36_flag_Uzbekistan">
<path id="Path" d="M0.75556 11.1289C0.253599 12.7038 -0.0012764 14.347 4.80627e-06 16C-0.0012764 17.653 0.253599 19.2962 0.75556 20.8711L16 21.5645L31.2444 20.8711C31.7464 19.2962 32.0012 17.653 32 16C32.0012 14.347 31.7464 12.7038 31.2444 11.1289L16 10.4356L0.75556 11.1289Z" fill="#F0F0F0"/>
<path id="Shape" fill-rule="evenodd" clip-rule="evenodd" d="M16 10.4356L31.2444 11.1289V11.1378L31.6178 12.5333H0.382202L0.755535 11.1289L16 10.4356ZM0.755535 20.8622L0.382202 19.4667H31.6178C31.5144 19.9373 31.3899 20.4029 31.2444 20.8622L16 21.5556L0.755535 20.8622Z" fill="#D80027"/>
<path id="Path_2" d="M16.0001 32C22.9615 32.0017 29.1251 27.502 31.2445 20.8711H0.755615C2.87498 27.502 9.03863 32.0017 16.0001 32Z" fill="#1EB53A"/>
<path id="Path_3" d="M16.0001 4.9532e-07C9.03863 -0.00172366 2.87498 4.49793 0.755615 11.1289H31.2445C29.1251 4.49793 22.9615 -0.00172366 16.0001 4.9532e-07Z" fill="#0099B5"/>
<g id="Group">
<path id="Path_4" d="M7.31551 6.61326C7.31551 5.11104 8.35551 3.85771 9.77773 3.55549C9.5644 3.51104 9.33329 3.48438 9.11107 3.48438C7.38662 3.48438 5.98218 4.88882 5.98218 6.61326C5.98218 8.33771 7.38662 9.74214 9.11107 9.74214C9.34218 9.74214 9.55551 9.71547 9.77773 9.67102C8.37329 9.35991 7.31551 8.11549 7.31551 6.61326Z" fill="#F0F0F0"/>
<path id="B" d="M11.6178 8.0356L11.8311 8.68449H12.5156L11.9645 9.08445L12.1778 9.73334L11.6267 9.33334L11.0756 9.73334L11.2889 9.08445L10.7378 8.68449H11.4222L11.6178 8.0356Z" fill="#F0F0F0"/>
<g id="B-link">
<path id="B_2" d="M13.8133 8.0356L14.0267 8.68449H14.7111L14.16 9.08445L14.3733 9.73334L13.8222 9.33334L13.2711 9.73334L13.4845 9.08445L12.9333 8.68449H13.6178L13.8133 8.0356Z" fill="#F0F0F0"/>
</g>
<path id="Path_5" d="M16 8.0356L16.2133 8.68449H16.8889L16.3377 9.08445L16.5511 9.73334L16 9.33334L15.4489 9.73334L15.6622 9.08445L15.1111 8.68449H15.7955L16 8.0356Z" fill="#F0F0F0"/>
<g id="B-link_2">
<path id="B_3" d="M18.1866 8.0356L18.4 8.68449H19.0844L18.5333 9.08445L18.7466 9.73334L18.1955 9.33334L17.6444 9.73334L17.8578 9.08445L17.3066 8.68449H17.9911L18.1866 8.0356Z" fill="#F0F0F0"/>
</g>
<g id="B-link_3">
<path id="B_4" d="M20.3733 8.0356L20.5866 8.68449H21.2711L20.72 9.08445L20.9333 9.73334L20.3822 9.33334L19.8311 9.73334L20.0444 9.08445L19.4933 8.68449H20.1777L20.3733 8.0356Z" fill="#F0F0F0"/>
</g>
<g id="B-link_4">
<path id="B_5" d="M13.8133 5.75998L14.0267 6.40887H14.7111L14.16 6.80887L14.3733 7.45776L13.8222 7.05776L13.2711 7.45776L13.4845 6.80887L12.9333 6.40887H13.6178L13.8133 5.75998Z" fill="#F0F0F0"/>
</g>
<path id="Path_6" d="M16 5.75998L16.2133 6.40887H16.8889L16.3377 6.80887L16.5511 7.45776L16 7.05776L15.4489 7.45776L15.6622 6.80887L15.1111 6.39998H15.7955L16 5.75998Z" fill="#F0F0F0"/>
<g id="B-link_5">
<path id="B_6" d="M18.1866 5.75998L18.4 6.40887H19.0844L18.5333 6.80887L18.7466 7.45776L18.1955 7.05776L17.6444 7.45776L17.8578 6.80887L17.3066 6.40887H17.9911L18.1866 5.75998Z" fill="#F0F0F0"/>
</g>
<g id="B-link_6">
<path id="B_7" d="M20.3733 5.75998L20.5866 6.40887H21.2711L20.72 6.80887L20.9333 7.45776L20.3822 7.05776L19.8311 7.45776L20.0444 6.80887L19.4933 6.40887H20.1777L20.3733 5.75998Z" fill="#F0F0F0"/>
</g>
<path id="Path_7" d="M16 3.48438L16.2133 4.13326H16.8889L16.3377 4.53326L16.5511 5.18215L16 4.78215L15.4489 5.18215L15.6622 4.53326L15.1111 4.13326H15.7955L16 3.48438Z" fill="#F0F0F0"/>
<g id="B-link_7">
<path id="B_8" d="M18.1866 3.48438L18.4 4.13326H19.0844L18.5333 4.53326L18.7466 5.18215L18.1955 4.78215L17.6444 5.18215L17.8578 4.53326L17.3066 4.13326H17.9911L18.1866 3.48438Z" fill="#F0F0F0"/>
</g>
<g id="B-link_8">
<path id="B_9" d="M20.3733 3.48438L20.5866 4.13326H21.2711L20.72 4.53326L20.9333 5.18215L20.3822 4.78215L19.8311 5.18215L20.0444 4.53326L19.4933 4.13326H20.1777L20.3733 3.48438Z" fill="#F0F0F0"/>
</g>
</g>
</g>
</g>
</svg>
