<svg width="32" height="32" viewBox="0 0 32 32" fill="none" xmlns="http://www.w3.org/2000/svg">
<g id="36 Multicolor / Flag / mc_36_flag_united_kingdom">
<g id="mc_36_flag_United-kingdom">
<path id="Oval" d="M16 32C24.8365 32 32 24.8365 32 16C32 7.16344 24.8365 0 16 0C7.16344 0 0 7.16344 0 16C0 24.8365 7.16344 32 16 32Z" fill="#F0F0F0"/>
<g id="Group">
<path id="Shape" fill-rule="evenodd" clip-rule="evenodd" d="M25.7413 3.30779L25.7423 3.30856V3.30678L25.7413 3.30779ZM25.7413 3.30779C24.1059 2.05128 22.2218 1.10222 20.1743 0.551224V8.87478L25.7413 3.30779ZM0.551147 11.8268C1.10226 9.77965 2.04981 7.89523 3.3067 6.25967L8.8747 11.8268H0.551147ZM28.6934 6.25967C29.9681 7.91668 30.9044 9.80828 31.4489 11.8268H23.1263L28.6934 6.25967ZM0.551387 20.1752H8.87381L3.3067 25.7423C2.05178 24.107 1.10253 22.2229 0.551387 20.1752ZM6.25959 28.6934C7.89514 29.9503 9.77959 30.8979 11.8267 31.449V23.1254L6.25959 28.6934ZM6.25959 3.30678C7.9166 2.03202 9.80821 1.09572 11.8267 0.551224V8.87389L6.25959 3.30678ZM20.1734 31.449C22.1919 30.9045 24.0835 29.9682 25.7405 28.6934L20.1734 23.1263V31.449ZM28.6916 25.7414L23.1245 20.1743H31.4471C30.896 22.2214 29.9485 24.1059 28.6916 25.7414Z" fill="#0052B4"/>
<path id="Shape_2" fill-rule="evenodd" clip-rule="evenodd" d="M31.8649 13.9129H18.0871V0.135131C16.7016 -0.0453286 15.2985 -0.0453286 13.9129 0.135131V13.9129H0.135101C-0.0453592 15.2985 -0.0453592 16.7016 0.135101 18.0871H13.9129V31.8649C15.2985 32.0453 16.7016 32.0453 18.0871 31.8649V18.0871H31.8649C32.0453 16.7016 32.0453 15.2985 31.8649 13.9129ZM20.1742 20.1742L27.3138 27.3138L28.2542 26.2862L22.1413 20.1733H20.1733L20.1742 20.1742ZM4.68621 27.3138L11.8258 20.1742H11.8267V22.1413L5.71376 28.2542L4.68621 27.3138ZM11.8258 11.8258L4.68621 4.68624L3.74576 5.7138L9.85865 11.8267H11.8267L11.8258 11.8258ZM27.3138 4.68624L20.1742 11.8258L20.1733 11.8267V9.85867L26.2862 3.7458L27.3138 4.68624Z" fill="#D80027"/>
</g>
</g>
</g>
</svg>
